<?xml version="1.0" encoding="utf-8"?>
<!-- Generator: Adobe Illustrator 21.1.0, SVG Export Plug-In . SVG Version: 6.00 Build 0)  -->
<svg version="1.1" id="레이어_1" xmlns="http://www.w3.org/2000/svg" xmlns:xlink="http://www.w3.org/1999/xlink" x="0px"
	 y="0px" viewBox="0 0 108 93" enable-background="new 0 0 108 93" xml:space="preserve">
<g>
	<path d="M27.4,50h11.4v5.9H10.1V50h11.4v-7.4c-3.4-1.2-5.8-4.4-5.8-8.2c0-1,0.2-2,0.5-2.9h-6.1v-5.9h11.4V14.3h5.9v11.4h11.4v5.9
		h-6.2c0.3,0.9,0.5,1.9,0.5,2.9c0,3.8-2.4,6.9-5.7,8.2V50z M15.8,72c0-4.8,3.9-8.7,8.7-8.7c4.8,0,8.7,3.9,8.7,8.7s-3.9,8.7-8.7,8.7
		C19.7,80.6,15.8,76.8,15.8,72z M21.7,34.4c0,1.5,1.2,2.7,2.7,2.7s2.8-1.2,2.8-2.7s-1.3-2.8-2.8-2.8S21.7,32.9,21.7,34.4z M21.7,72
		c0,1.5,1.3,2.8,2.8,2.8s2.8-1.3,2.8-2.8s-1.3-2.8-2.8-2.8S21.7,70.5,21.7,72z"/>
	<path d="M67,50h11.4v5.9H49.7V50h11.4v-7.4c-3.4-1.2-5.8-4.4-5.8-8.2c0-1,0.2-2,0.5-2.9h-6.1v-5.9h11.4V14.3H67v11.4h11.4v5.9h-6.2
		c0.3,0.9,0.5,1.9,0.5,2.9c0,3.8-2.4,6.9-5.7,8.2V50z M61.3,34.4c0,1.5,1.2,2.7,2.7,2.7s2.8-1.2,2.8-2.7s-1.3-2.8-2.8-2.8
		S61.3,32.9,61.3,34.4z M89.8,31.5v11.4h-5.9V14.3h5.9v11.4h11.4v5.9H89.8z"/>
</g>
</svg>
