<?xml version="1.0" encoding="utf-8"?>
<!-- Generator: Adobe Illustrator 21.1.0, SVG Export Plug-In . SVG Version: 6.00 Build 0)  -->
<svg version="1.1" id="레이어_1" xmlns="http://www.w3.org/2000/svg" xmlns:xlink="http://www.w3.org/1999/xlink" x="0px"
	 y="0px" viewBox="0 0 164.7 50.7" enable-background="new 0 0 164.7 50.7" xml:space="preserve">
<g>
	<path d="M27,21.2v17.3h-5.9V27.1H9.7v-5.9H27z M47.2,21.2V9.9h5.9v28.6h-5.9V27.1h-5.5v11.4h-5.9V9.9h5.9v11.4H47.2z"/>
	<path d="M69.1,38.5V21.2h6v11.4h11.3v5.9H69.1z M99.1,27.1v11.4h-5.9V9.9h5.9v11.4h11.4v5.9H99.1z"/>
	<path d="M126.9,27.1v5.5h11.5v5.9H121V21.2h11.4v-5.4h-11.3v-6h17.2v17.3H126.9z M147.1,21.2h5.9v17.3h-5.9V21.2z"/>
</g>
</svg>
