<?xml version="1.0" encoding="utf-8"?>
<!-- Generator: Adobe Illustrator 21.1.0, SVG Export Plug-In . SVG Version: 6.00 Build 0)  -->
<svg version="1.1" id="레이어_1" xmlns="http://www.w3.org/2000/svg" xmlns:xlink="http://www.w3.org/1999/xlink" x="0px"
	 y="0px" viewBox="0 0 151 97" enable-background="new 0 0 151 97" xml:space="preserve">
<g>
	<path d="M27,37.8H9.8V20.5H27V37.8z M15.7,26.4v5.5h5.5v-5.5H15.7z M35.9,20.5h5.9v17.3h-5.9V20.5z M35.9,62.1V44.8h5.9v11.3h11.4
		v6H35.9z"/>
	<path d="M80.4,37.8H63.2V20.5h17.3v5.9H69.1v5.5h11.4V37.8z M80.6,50.7H63.4v-5.9h17.3V50.7z M69.3,75.4v5.4h11.5v5.9H63.4V69.4
		h11.3V64H63.5v-5.9h17.2v17.3H69.3z"/>
	<path d="M101.6,26.4v5.5h11.5v5.9H95.7V20.5h11.4v-5.4H95.8v-6H113v17.3H101.6z M133.2,20.5V9.1h5.9v28.6h-5.9V26.4h-5.5v11.4h-5.9
		V9.1h5.9v11.4H133.2z"/>
</g>
</svg>
