<?xml version="1.0" encoding="utf-8"?>
<!-- Generator: Adobe Illustrator 21.1.0, SVG Export Plug-In . SVG Version: 6.00 Build 0)  -->
<svg version="1.1" id="레이어_1" xmlns="http://www.w3.org/2000/svg" xmlns:xlink="http://www.w3.org/1999/xlink" x="0px"
	 y="0px" viewBox="0 0 126.3 96.7" enable-background="new 0 0 126.3 96.7" xml:space="preserve">
<g>
	<path d="M27.1,39.3H9.8V10.6h5.9V22h5.5V10.6h5.9V39.3z M21.2,27.9h-5.5v5.5h5.5V27.9z M32.5,27.9V22h11.4V10.6h5.9v28.6h-5.9V27.9
		H32.5z M43.9,46.3h28.6v5.9h-8.5l7,7l-4.2,4.2l-8.7-8.6l-8.6,8.6l-4.2-4.2l6.9-7h-8.4V46.3z"/>
	<path d="M102.4,46.3h11.4v5.9H85.1v-5.9h11.4v-7.1h-5.7V27.9H79.5V22h28.5v17.3h-5.7V46.3z M85.1,70.8h28.6v6h-8.4l6.9,6.9
		l-4.2,4.2l-8.7-8.6l-8.6,8.6l-4.2-4.2l6.8-6.9h-8.3V70.8z M92.9,59.6h13v5.9h-13V59.6z M102.2,27.9h-5.4V35h5.4V27.9z"/>
</g>
</svg>
